#!OML:ASF F:\VICON\USERDATA\INSTALL\rory3\rory3.ASF
:FULLY-SPECIFIED
:DEGREES
194
root 1.78801 15.7364 -23.1513 -80.4598 -28.7599 137.024
lowerback 73.9653 -12.483 6.64753
upperback -7.49629 -3.12855 12.3699
thorax -36.9593 1.21372 18.4469
lowerneck 5.24173 1.41488 -33.2631
upperneck -9.17886 0.640047 19.1094
head -3.74348 0.551307 11.7987
rclavicle -2.66371e-014 -1.87852e-014
rhumerus 72.9695 9.92589 -37.3103
rradius 19.7325
rwrist 14.9488
rhand -40.9551 39.663
rfingers 7.12502
rthumb -13.8884 10.1468
lclavicle -2.66371e-014 -1.87852e-014
lhumerus 56.2698 18.775 104.311
lradius 9.65274
lwrist -57.3542
lhand -21.445 22.8331
lfingers 7.12502
lthumb 4.94463 52.7554
rfemur -85.0472 15.2951 303.727
rtibia 51.913
rfoot 81.8181 148.3
rtoes 54.0262
lfemur 51.4856 -34.2019 -52.4234
ltibia 2.22639e-014
lfoot -70.0622 48.4113
ltoes 29.0343
195
root 1.77828 15.7227 -23.0589 -81.6287 -30.3082 137.189
lowerback 72.5759 -12.0213 6.99034
upperback -6.52845 -2.53423 12.8176
thorax -36.4395 1.25891 18.3285
lowerneck 4.88324 1.04424 -31.8588
upperneck -8.25557 0.27448 18.447
head -3.3031 0.320184 11.2828
rclavicle 4.96962e-014 -2.83268e-014
rhumerus 71.9714 11.0099 -37.5234
rradius 19.36
rwrist 16.3897
rhand -39.7662 37.5804
rfingers 7.12502
rthumb -12.7424 7.98917
lclavicle 4.96962e-014 -2.83268e-014
lhumerus 55.431 17.3198 103.088
lradius 8.73445
lwrist -54.6945
lhand -16.2974 22.8169
lfingers 7.12502
lthumb 9.91324 52.5635
rfemur -84.8193 14.2252 308.391
rtibia 52.6356
rfoot 85.8692 147.138
rtoes 53.4001
lfemur 47.6734 -32.3021 -47.1966
ltibia 3.81667e-014
lfoot -63.9445 52.8665
ltoes 27.1694
196
root 1.78308 15.711 -22.9611 -82.9272 -31.8549 137.37
lowerback 71.376 -12.026 7.80649
upperback -6.15499 -2.19442 12.9512
thorax -35.5832 1.0003 17.6387
lowerneck 4.33237 0.565603 -30.3792
upperneck -7.28036 -0.168329 17.9869
head -2.80332 0.0511254 10.8387
rclavicle -3.8763e-015 -2.77802e-014
rhumerus 70.9266 11.8907 -37.0825
rradius 19.2083
rwrist 16.9859
rhand -38.7255 35.006
rfingers 7.12502
rthumb -11.739 5.35491
lclavicle -3.8763e-015 -2.77802e-014
lhumerus 54.5839 15.6892 101.463
lradius 7.5815
lwrist -51.3416
lhand -11.3471 22.2884
lfingers 7.12502
lthumb 14.6861 51.7483
rfemur -84.3205 11.6141 315.288
rtibia 53.5877
rfoot 93.153 145.423
rtoes 52.2952
lfemur 44.1917 -30.1155 -42.2947
ltibia -8.90555e-014
lfoot -56.2699 56.8482
ltoes 25.9728
197
root 1.79128 15.7096 -22.8696 -84.2439 -34.8852 137.796
lowerback 70.9018 -12.2235 9.60332
upperback -7.08751 -0.976373 13.602
thorax -34.0123 0.520909 16.2606
lowerneck 3.58152 0.0666667 -28.8536
upperneck -5.97289 -0.6299 17.2818
head -2.1842 -0.219404 10.2917
rclavicle 7.41964e-014 -1.1204e-013
rhumerus 69.9829 12.6934 -36.4531
rradius 19.2034
rwrist 17.6552
rhand -37.2715 32.1444
rfingers 7.12502
rthumb -10.3366 2.41842
lclavicle 7.41964e-014 -1.1204e-013
lhumerus 53.7073 14.2141 99.8516
lradius 6.41246
lwrist -47.1991
lhand -6.53602 21.5532
lfingers 7.12502
lthumb 19.317 50.6138
rfemur -84.5035 10.3772 321.961
rtibia 54.4474
rfoot 98.2946 144.891
rtoes 51.7156
lfemur 40.8599 -27.6316 -36.0722
ltibia 3.18055e-014
lfoot -49.4468 58.246
ltoes 27.456
198
root 1.80807 15.7096 -22.7412 -85.2942 -34.9049 138.255
lowerback 68.9205 -12.1451 9.75571
upperback -6.6131 -1.43568 13.3396
thorax -33.0403 0.191379 15.77
lowerneck 3.26342 -0.34601 -27.8363
upperneck -5.73964 -1.05025 17.2859
head -1.96292 -0.449104 10.1198
rclavicle 3.75703e-014 -5.01931e-015
rhumerus 69.2204 13.2786 -35.5809
rradius 19.1859
rwrist 18.1687
rhand -35.602 29.5602
rfingers 7.12502
rthumb -8.72576 -0.239393
lclavicle 3.75703e-014 -5.01931e-015
lhumerus 52.7293 12.7912 97.9666
lradius 5.77163
lwrist -43.3121
lhand -2.24648 21.0923
lfingers 7.12502
lthumb 23.437 49.685
rfemur -84.4626 8.76313 324.518
rtibia 55.0512
rfoot 102.667 144.815
rtoes 51.2349
lfemur 37.0987 -24.9123 -32.9691
ltibia 4.13472e-014
lfoot -43.5997 56.7131
ltoes 34.0434
199
root 1.80054 15.7233 -22.6429 -86.2769 -37.7129 138.972
lowerback 67.3207 -12.3555 11.5478
upperback -6.05103 -0.717874 13.6592
thorax -32.0692 -0.0145136 14.7518
lowerneck 2.96962 -0.654815 -26.6866
upperneck -5.6339 -1.35642 16.854
head -1.82195 -0.608452 9.76711
rclavicle -1.08139e-013 -1.61016e-013
rhumerus 68.8852 14.0283 -33.8108
rradius 19.257
rwrist 18.1854
rhand -33.6893 27.0601
rfingers 7.12502
rthumb -6.87962 -2.8081
lclavicle -1.08139e-013 -1.61016e-013
lhumerus 51.5982 11.6398 96.08
lradius 5.40561
lwrist -40.2684
lhand 1.12573 20.9045
lfingers 7.12502
lthumb 26.6682 49.0458
rfemur -84.9094 8.6677 328.657
rtibia 55.3646
rfoot 104.949 144.811
rtoes 51.3284
lfemur 33.4382 -21.8446 -27.202
ltibia -3.33958e-014
lfoot -35.799 57.8333
ltoes 33.4288
200
root 1.80184 15.7406 -22.5413 -87.295 -39.5072 139.786
lowerback 65.5477 -12.2957 12.5226
upperback -5.40245 -0.479524 13.9012
thorax -30.9157 -0.214609 14.2058
lowerneck 2.15206 -0.959926 -25.6488
upperneck -4.94 -1.55963 16.5948
head -1.44662 -0.71531 9.47849
rclavicle 9.12422e-014 -8.44835e-015
rhumerus 68.2856 14.6011 -33.3029
rradius 19.6461
rwrist 19.6509
rhand -30.7645 24.9536
rfingers 7.12502
rthumb -4.05569 -4.98757
lclavicle 9.12422e-014 -8.44835e-015
lhumerus 50.4264 10.5381 94.1993
lradius 5.55907
lwrist -38.4048
lhand 4.02541 21.0479
lfingers 7.12502
lthumb 29.44 48.7351
rfemur -85.3231 9.27537 330.448
rtibia 55.4349
rfoot 105.697 145.08
rtoes 52.0213
lfemur 29.8542 -18.4707 -22.7708
ltibia 1.11319e-014
lfoot -27.2286 58.8165
ltoes 30.328
201
root 1.81211 15.7664 -22.4444 -88.2797 -40.6822 140.473
lowerback 63.9036 -12.1253 12.9162
upperback -4.75773 -0.541502 14.1477
thorax -29.785 -0.385692 14.0946
lowerneck 1.01728 -1.23013 -24.3967
upperneck -4.0529 -1.67596 16.0791
head -0.990541 -0.768023 9.06029
rclavicle -2.94201e-014 1.07195e-013
rhumerus 67.8205 15.2791 -33.2846
rradius 19.8133
rwrist 21.6624
rhand -27.961 23.4023
rfingers 7.12502
rthumb -1.34829 -6.57323
lclavicle -2.94201e-014 1.07195e-013
lhumerus 48.6959 9.35481 92.4849
lradius 6.77422
lwrist -38.1419
lhand 6.57809 21.601
lfingers 7.12502
lthumb 31.874 48.8322
rfemur -85.3935 9.11132 332.563
rtibia 55.3627
rfoot 107.873 145.011
rtoes 52.2406
lfemur 26.4734 -15.008 -19.3472
ltibia 2.42517e-014
lfoot -16.5782 59.196
ltoes 25.2352
202
root 1.80686 15.7991 -22.3496 -89.3825 -41.6631 141.281
lowerback 62.1427 -11.9517 13.209
upperback -4.08423 -0.744484 14.3318
thorax -28.5791 -0.590643 13.9939
lowerneck -0.140379 -1.5003 -23.1366
upperneck -3.02756 -1.8255 15.5335
head -0.487943 -0.836449 8.63495
rclavicle -1.03766e-013 5.97348e-014
rhumerus 68.3617 15.9919 -29.2951
rradius 20.1068
rwrist 20.1486
rhand -25.6275 22.1551
rfingers 7.12502
rthumb 0.905552 -7.82277
lclavicle -1.03766e-013 5.97348e-014
lhumerus 46.9938 8.13652 90.795
lradius 8.20119
lwrist -39.0151
lhand 8.71657 22.3636
lfingers 7.12502
lthumb 33.9081 49.1678
rfemur -85.3291 9.29831 334.103
rtibia 55.1394
rfoot 109.452 144.976
rtoes 52.2635
lfemur 23.4798 -11.5273 -16.7335
ltibia -5.8716e-014
lfoot -16.5356 57.0171
ltoes 27.0317
